<svg width="100" height="87" viewBox="0 0 100 87" fill="none" xmlns="http://www.w3.org/2000/svg">
<path d="M49.715 37.2865C34.2941 37.2865 12.4299 61.1257 12.4299 76.1737C12.4299 82.9511 17.6362 87 26.3613 87C35.8457 87 42.1084 82.1296 49.715 82.1296C57.3876 82.1296 63.6678 87 73.0687 87C81.7938 87 87.0001 82.9511 87.0001 76.1737C87.0001 61.1257 65.1359 37.2865 49.715 37.2865ZM21.1142 34.8377C19.0946 28.1089 12.8726 23.7512 7.21772 25.1028C1.56281 26.4544 -1.38311 33.0045 0.636502 39.7333C2.65611 46.4621 8.87807 50.8198 14.533 49.4683C20.1879 48.1167 23.1338 41.5665 21.1142 34.8377ZM37.5663 30.8024C43.5746 29.2216 46.5807 21.1044 44.2815 12.6725C41.9822 4.24061 35.2476 -1.31138 29.2392 0.269356C23.2309 1.85009 20.2248 9.96737 22.524 18.3992C24.8233 26.8311 31.5599 32.3851 37.5663 30.8024ZM92.2103 25.1047C86.5554 23.7532 80.3354 28.1109 78.3138 34.8397C76.2942 41.5685 79.2402 48.1186 84.8951 49.4702C90.55 50.8218 96.77 46.4641 98.7915 39.7353C100.811 33.0065 97.8652 26.4563 92.2103 25.1047ZM61.8637 30.8024C67.8721 32.3831 74.6067 26.8311 76.9059 18.3992C79.2052 9.96737 76.1991 1.85203 70.1907 0.269356C64.1824 -1.31332 57.4478 4.24061 55.1485 12.6725C52.8493 21.1044 55.8554 29.2216 61.8637 30.8024Z" fill="#21DDF7"/>
</svg>